<svg id="f504ad2e-fe57-4e0c-bebc-6c9693157cd3" data-name="Layer 1" xmlns="http://www.w3.org/2000/svg" viewBox="0 0 256 256"><defs><style>.b097d97f-7e9d-491b-9d06-8849d3447e3b{fill:#fff;}</style></defs><title>icon-pinterest</title><path class="b097d97f-7e9d-491b-9d06-8849d3447e3b" d="M128,0A128,128,0,0,0,81.35,247.23c-1.12-10.12-2.13-25.7.45-36.75,2.32-10,15-63.63,15-63.63a46.21,46.21,0,0,1-3.83-19c0-17.8,10.31-31.09,23.16-31.09,10.92,0,16.19,8.2,16.19,18,0,11-7,27.4-10.6,42.62-3,12.74,6.39,23.13,19,23.13,22.75,0,40.24-24,40.24-58.61,0-30.65-22-52.08-53.47-52.08-36.42,0-57.8,27.32-57.8,55.55,0,11,4.24,22.8,9.53,29.21a3.85,3.85,0,0,1,.89,3.67c-1,4-3.14,12.74-3.56,14.52-.56,2.34-1.86,2.84-4.28,1.71-16-7.44-26-30.81-26-49.59,0-40.38,29.33-77.46,84.57-77.46,44.4,0,78.91,31.64,78.91,73.93,0,44.11-27.81,79.62-66.42,79.62-13,0-25.16-6.74-29.34-14.7,0,0-6.41,24.44-8,30.43-2.89,11.12-10.69,25-15.91,33.55A128,128,0,1,0,128,0"/></svg>