<svg id="a443359f-0724-4fea-bd5e-0d79f474c64f" data-name="Layer 1" xmlns="http://www.w3.org/2000/svg" viewBox="0 0 256 256"><defs><style>.f8c96007-232c-4957-ab9f-46ca0b01c103{fill:#fff;}</style></defs><title>icon-instagram</title><path class="f8c96007-232c-4957-ab9f-46ca0b01c103" d="M190.36,80.82a26.44,26.44,0,0,0-15.18-15.18c-2.82-1.1-7.05-2.4-14.85-2.76-8.44-.38-11-.47-32.33-.47s-23.89.09-32.33.47c-7.8.36-12,1.66-14.85,2.76A26.44,26.44,0,0,0,65.64,80.82c-1.1,2.82-2.4,7.05-2.76,14.85-.38,8.44-.47,11-.47,32.33s.09,23.89.47,32.33c.36,7.8,1.66,12,2.76,14.85a26.44,26.44,0,0,0,15.18,15.18c2.82,1.1,7.05,2.4,14.85,2.76,8.44.38,11,.47,32.33.47s23.89-.09,32.33-.47c7.8-.36,12-1.66,14.85-2.76a26.44,26.44,0,0,0,15.18-15.18c1.1-2.82,2.4-7.05,2.76-14.85.38-8.44.47-11,.47-32.33s-.09-23.89-.47-32.33C192.76,87.87,191.46,83.64,190.36,80.82ZM128,169.08A41.08,41.08,0,1,1,169.08,128,41.08,41.08,0,0,1,128,169.08ZM170.7,94.9a9.6,9.6,0,1,1,9.6-9.6A9.6,9.6,0,0,1,170.7,94.9Z"/><circle class="f8c96007-232c-4957-ab9f-46ca0b01c103" cx="128" cy="128" r="26.67"/><path class="f8c96007-232c-4957-ab9f-46ca0b01c103" d="M128,0A128,128,0,1,0,256,128,128,128,0,0,0,128,0Zm79.52,161c-.39,8.52-1.74,14.33-3.72,19.42a40.94,40.94,0,0,1-23.4,23.4c-5.09,2-10.9,3.33-19.42,3.72s-11.25.48-33,.48-24.45-.09-33-.48-14.33-1.74-19.42-3.72a40.94,40.94,0,0,1-23.4-23.4c-2-5.09-3.33-10.9-3.72-19.42S48,149.73,48,128s.09-24.45.48-33S50.22,80.69,52.2,75.6A40.94,40.94,0,0,1,75.6,52.2c5.09-2,10.9-3.33,19.42-3.72S106.27,48,128,48s24.45.09,33,.48,14.33,1.74,19.42,3.72a40.94,40.94,0,0,1,23.4,23.4c2,5.09,3.33,10.9,3.72,19.42s.48,11.25.48,33S207.91,152.45,207.52,161Z"/></svg>