<svg id="b2581863-70b2-45c6-b159-ce503ac40476" data-name="Layer 1" xmlns="http://www.w3.org/2000/svg" viewBox="0 0 256 256"><defs><style>.f1624e0a-c081-494e-bae5-5d55bb63f022{fill:#fff;}</style></defs><title>icon-twitter</title><path class="f1624e0a-c081-494e-bae5-5d55bb63f022" d="M128,0A128,128,0,1,0,256,128,128,128,0,0,0,128,0Zm64.29,103.73c.06,1.32.08,2.65.08,4,0,40.77-31,87.8-87.79,87.8a87.38,87.38,0,0,1-47.3-13.86,63.94,63.94,0,0,0,7.36.42A61.92,61.92,0,0,0,103,168.87a30.89,30.89,0,0,1-28.83-21.43,30.63,30.63,0,0,0,13.93-.53,30.87,30.87,0,0,1-24.75-30.25v-.39a30.75,30.75,0,0,0,14,3.86,30.88,30.88,0,0,1-9.55-41.19,87.57,87.57,0,0,0,63.6,32.23A30.88,30.88,0,0,1,183.94,83a61.73,61.73,0,0,0,19.59-7.49A31,31,0,0,1,190,92.61a61.59,61.59,0,0,0,17.72-4.85A62.82,62.82,0,0,1,192.29,103.73Z"/></svg>