<svg id="e9776a3b-d102-4b5f-99aa-d734ea75efd4" data-name="Layer 1" xmlns="http://www.w3.org/2000/svg" viewBox="0 0 350 62"><defs><style>.a5ac0f19-7576-42e0-8739-3d17505e53b4{fill:#ee293d;}.bdecf817-1d21-467d-b43a-ad521657a158{fill:#1a5dad;}</style></defs><title>space-oddity</title><path class="a5ac0f19-7576-42e0-8739-3d17505e53b4" d="M0,40.73H7.78v3.89c0,3.56.66,6.13,1.9,7.7a4,4,0,0,0,1.49,1.16,7,7,0,0,0,3.39.66,6,6,0,0,0,5.63-3.31A13.53,13.53,0,0,0,21.27,45a8.29,8.29,0,0,0-2.4-6.21,17.53,17.53,0,0,0-5.05-3l-1.49-.66A23,23,0,0,1,5,30.64,16.34,16.34,0,0,1,0,18.39c0-5.21,1.41-9.6,4.05-12.66A13.61,13.61,0,0,1,14.56.93c6,0,9.27,2.57,11,4.8C28,8.79,29.13,13,29.13,18.39v3.89H21.27V18.39c0-4.71-1.08-7.28-2.49-8.44a6.31,6.31,0,0,0-4.22-1.16,5.72,5.72,0,0,0-5.71,3.89,14.31,14.31,0,0,0-1.07,5.71,8.58,8.58,0,0,0,2.4,6.29A13.93,13.93,0,0,0,15.47,28l1.33.58a21.34,21.34,0,0,1,7.2,4.3A15.89,15.89,0,0,1,29.13,45c0,9.35-5.22,16.88-14.57,16.88C4.88,61.92,0,55.55,0,44.62Z"/><path class="a5ac0f19-7576-42e0-8739-3d17505e53b4" d="M40.63,35.36V61.92H32.85V.93H45.51c10.34,0,15.55,6.21,15.55,17.13,0,11.17-5,17.3-15.55,17.3Zm0-26.57v18.7h4.88c2.15,0,3.64-.24,4.38-.74a9.77,9.77,0,0,0,1.49-1.16c1.24-1.24,1.82-3.8,1.82-7.53,0-4-.66-6.29-1.9-7.61s-3.23-1.66-5.79-1.66Z"/><path class="a5ac0f19-7576-42e0-8739-3d17505e53b4" d="M80.92,45H70.33L66.44,62h-8L72.48,1h6.21L92.92,62H84.81Zm-8.77-7.77H79.1l-3.47-15Z"/><path class="a5ac0f19-7576-42e0-8739-3d17505e53b4" d="M94.57,18.39c0-5.38,1.16-9.6,3.48-12.58,1.74-2.23,5-4.79,11-4.79S118.24,3.58,120,5.81c2.4,3.07,3.55,7.2,3.55,12.58v3.89h-7.86V18.39c0-4.71-1.07-7.28-2.4-8.44a6.31,6.31,0,0,0-4.22-1.16A6.11,6.11,0,0,0,104.83,10c-1.4,1.16-2.48,3.73-2.48,8.44V44.54c0,3.56.66,6.21,1.9,7.78a4,4,0,0,0,1.49,1.24,6.91,6.91,0,0,0,3.31.66c3,0,4.14-1.16,4.8-1.9,1.24-1.66,1.82-4.22,1.82-7.78V40.65h7.86v3.89c0,5.38-1.15,9.52-3.55,12.58-1.74,2.23-5,4.88-10.93,4.88a14.25,14.25,0,0,1-7-1.65,12.54,12.54,0,0,1-4-3.23c-2.32-3-3.48-7.2-3.48-12.58Z"/><path class="a5ac0f19-7576-42e0-8739-3d17505e53b4" d="M151.91,1V8.79H134.45V27.58h17.46v7.78H134.45V54.22h17.46V62H126.68V1Z"/><path class="bdecf817-1d21-467d-b43a-ad521657a158" d="M186.42,44.46c0,5.46-1.16,9.6-3.48,12.49a12,12,0,0,1-3.89,3.23,14.58,14.58,0,0,1-7.11,1.66c-6,0-9.27-2.65-11-4.89-2.32-2.89-3.47-7-3.47-12.49V18.14c0-5.37,1.15-9.51,3.47-12.49,1.74-2.23,5-4.8,11-4.8s9.26,2.57,11,4.8c2.32,3,3.48,7.12,3.48,12.49Zm-2.9-26.32c0-9.35-4-14.39-11.58-14.39s-11.59,5-11.59,14.39V44.46c0,9.35,4.06,14.48,11.59,14.48s11.58-5.13,11.58-14.48Zm-2,26.32c0,8.35-3.23,12.49-9.6,12.49s-9.6-4.14-9.6-12.49V18.14q0-6.45,2.48-9.43c1.49-2,3.89-3,7.12-3s5.62,1,7.11,3q2.49,3,2.49,9.43Zm-2.9-26.32c0-4.71-1.08-7.19-2.48-8.35a6.33,6.33,0,0,0-4.22-1.16,6.1,6.1,0,0,0-4.22,1.16c-1.41,1.16-2.49,3.64-2.49,8.35V44.46c0,4.88,1.08,7.2,2.49,8.35a6.21,6.21,0,0,0,4.22,1.25,6.47,6.47,0,0,0,4.22-1.25c1.4-1.15,2.48-3.47,2.48-8.35Z"/><path class="bdecf817-1d21-467d-b43a-ad521657a158" d="M218.6,44.38c0,11.17-5,17.62-15.47,17.62H191V59.1h12.16c4.22,0,7.36-1.24,9.6-3.8,2-2.49,3-6.12,3-10.92V18.72c0-9.6-4.06-14.73-12.58-14.73H191V1h12.16c5.21,0,9.19,1.65,11.83,5,2.4,2.9,3.64,7.2,3.64,12.74ZM191,5.9h2.89V57.12H191Zm4.88,51.22V5.9h7.28c3.72,0,6.45,1.07,8,3.14,1.73,2.07,2.56,5.3,2.56,9.68V44.38c0,4.38-.83,7.61-2.56,9.68s-4.31,3.06-8,3.06Zm2.9-48.24V54.22h4.38c2,0,3.89-.16,5.3-1.49s2.31-3.8,2.31-8.35V18.72c0-4.55-1-7-2.31-8.35s-3.31-1.49-5.3-1.49Z"/><path class="bdecf817-1d21-467d-b43a-ad521657a158" d="M251,44.38c0,11.17-5,17.62-15.47,17.62H223.4V59.1h12.17c4.22,0,7.36-1.24,9.59-3.8,2-2.49,3-6.12,3-10.92V18.72c0-9.6-4-14.73-12.57-14.73H223.4V1h12.17c5.21,0,9.18,1.65,11.83,5,2.4,2.9,3.64,7.2,3.64,12.74ZM223.4,5.9h2.9V57.12h-2.9Zm4.88,51.22V5.9h7.29c3.72,0,6.45,1.07,8,3.14,1.74,2.07,2.57,5.3,2.57,9.68V44.38c0,4.38-.83,7.61-2.57,9.68s-4.3,3.06-8,3.06Zm2.9-48.24V54.22h4.39c2,0,3.88-.16,5.29-1.49s2.32-3.8,2.32-8.35V18.72c0-4.55-1-7-2.32-8.35s-3.31-1.49-5.29-1.49Z"/><path class="bdecf817-1d21-467d-b43a-ad521657a158" d="M258.32,61.92V.93h2.89v61Zm7.78,0h-2.9V.93h2.9Z"/><path class="bdecf817-1d21-467d-b43a-ad521657a158" d="M306.23,4H271.72V1h34.51ZM271.72,5.9H288V62h-3V8.88H271.72ZM289.93,62V5.9h16.3v3H292.91V62Z"/><path class="bdecf817-1d21-467d-b43a-ad521657a158" d="M310.7,1,327.58,31.8V62h-2.82V32.54L307.39,1Zm30.36,0h3.15L328.57,29.48,312.93,1h3.39l12.33,22.42ZM329.48,62V31.8L346.44,1H350L332.54,32.54V62Z"/></svg>