<svg id="bd74cd79-fa60-440d-b697-2b09657e5063" data-name="Layer 1" xmlns="http://www.w3.org/2000/svg" viewBox="0 0 320 80"><defs><style>.b344f51d-4177-46a4-acc6-c67c278ffb2c{fill:#222;}.ab67bd07-9012-4bf6-a80a-5ce0f14154aa,.b24e2516-3ae7-425d-86bf-cd6fd03428a6{fill:#f55;}.ab67bd07-9012-4bf6-a80a-5ce0f14154aa,.baf4e9d7-99e7-4cd3-9a61-1248c2e87f53{fill-rule:evenodd;}.a6b5a213-c3f2-4d32-b997-72dce41514c7{fill:#fff;}.baf4e9d7-99e7-4cd3-9a61-1248c2e87f53{fill:#55cddc;}</style></defs><title>docendo-discimus</title><path class="b344f51d-4177-46a4-acc6-c67c278ffb2c" d="M90.67,23.58h5.25c4.84,0,8,2.89,8,7.89s-3.19,7.93-8,7.93H90.67Zm5.09,13.9c3.57,0,5.9-2.11,5.9-6s-2.35-6-5.9-6H92.89v12Z"/><path class="b344f51d-4177-46a4-acc6-c67c278ffb2c" d="M114.32,23.31a8,8,0,0,1,8.12,8.07,8.13,8.13,0,1,1-16.26,0A8,8,0,0,1,114.32,23.31Zm0,14.32a6,6,0,0,0,5.83-6.25,5.84,5.84,0,1,0-11.68,0A6,6,0,0,0,114.32,37.63Z"/><path class="b344f51d-4177-46a4-acc6-c67c278ffb2c" d="M132.63,23.31a8.19,8.19,0,0,1,5.77,2.08l-1.1,1.66a7.25,7.25,0,0,0-4.58-1.72,5.75,5.75,0,0,0-5.85,6.05,5.94,5.94,0,0,0,5.88,6.25,7.14,7.14,0,0,0,4.88-2.06l1.19,1.59a8.47,8.47,0,0,1-6.14,2.51,8,8,0,0,1-8.09-8.27A7.9,7.9,0,0,1,132.63,23.31Z"/><path class="b344f51d-4177-46a4-acc6-c67c278ffb2c" d="M141.84,23.58H151v1.93h-7v4.95h5.68v1.93h-5.68v5.09h7.36V39.4h-9.58Z"/><path class="b344f51d-4177-46a4-acc6-c67c278ffb2c" d="M154.69,23.58h2.19l7,10.29a26.12,26.12,0,0,1,1.33,2.28h0s-.16-1.41-.16-2.28V23.58h2.22V39.4h-2.17l-7.06-10.26c-.59-.88-1.33-2.31-1.33-2.31h0s.16,1.41.16,2.31V39.4h-2.22Z"/><path class="b344f51d-4177-46a4-acc6-c67c278ffb2c" d="M171.65,23.58h5.25c4.84,0,8,2.89,8,7.89s-3.18,7.93-8,7.93h-5.25Zm5.09,13.9c3.57,0,5.9-2.11,5.9-6s-2.36-6-5.9-6h-2.87v12Z"/><path class="b344f51d-4177-46a4-acc6-c67c278ffb2c" d="M195.3,23.31a8,8,0,0,1,8.12,8.07,8.13,8.13,0,1,1-16.26,0A8,8,0,0,1,195.3,23.31Zm0,14.32a6,6,0,0,0,5.83-6.25,5.84,5.84,0,1,0-11.68,0A6,6,0,0,0,195.3,37.63Z"/><path class="b344f51d-4177-46a4-acc6-c67c278ffb2c" d="M216.62,23.58h5.24c4.84,0,8,2.89,8,7.89s-3.19,7.93-8,7.93h-5.24Zm5.09,13.9c3.56,0,5.89-2.11,5.89-6s-2.35-6-5.89-6h-2.87v12Z"/><path class="b344f51d-4177-46a4-acc6-c67c278ffb2c" d="M233.2,23.58h2.22V39.4H233.2Z"/><path class="b344f51d-4177-46a4-acc6-c67c278ffb2c" d="M239.77,35.91a6.24,6.24,0,0,0,4,1.7c1.48,0,2.74-.83,2.74-2.33,0-3.43-7.67-2.69-7.67-7.56,0-2.46,2.13-4.41,5.11-4.41a6.51,6.51,0,0,1,4.49,1.59l-1,1.84A5.59,5.59,0,0,0,244,25.37c-1.68,0-2.87,1.05-2.87,2.31,0,3.27,7.67,2.4,7.67,7.53,0,2.45-1.88,4.46-5,4.46a7.44,7.44,0,0,1-5.25-2.08Z"/><path class="b344f51d-4177-46a4-acc6-c67c278ffb2c" d="M258.93,23.31a8.15,8.15,0,0,1,5.76,2.08l-1.09,1.66A7.25,7.25,0,0,0,259,25.33a5.75,5.75,0,0,0-5.85,6.05A5.94,5.94,0,0,0,259,37.63a7.15,7.15,0,0,0,4.89-2.06l1.19,1.59A8.5,8.5,0,0,1,259,39.67a8,8,0,0,1-8.1-8.27A7.91,7.91,0,0,1,258.93,23.31Z"/><path class="b344f51d-4177-46a4-acc6-c67c278ffb2c" d="M268.14,23.58h2.22V39.4h-2.22Z"/><path class="b344f51d-4177-46a4-acc6-c67c278ffb2c" d="M275.45,23.58h2.33l3.63,8.56c.36.88.79,2.13.79,2.13h0s.43-1.25.79-2.13l3.63-8.56H289l1.28,15.82h-2.2l-.78-10c-.07-1,0-2.33,0-2.33h0s-.47,1.45-.85,2.33l-3.16,7.13h-2l-3.14-7.13c-.35-.85-.85-2.38-.85-2.38h0s0,1.41-.05,2.38l-.76,10h-2.22Z"/><path class="b344f51d-4177-46a4-acc6-c67c278ffb2c" d="M293.85,23.58h2.22V33.8c0,2.42,1.57,3.83,4,3.83s4-1.41,4-3.88V23.58h2.22V33.8c0,3.52-2.53,5.87-6.23,5.87s-6.23-2.35-6.23-5.87Z"/><path class="b344f51d-4177-46a4-acc6-c67c278ffb2c" d="M310.44,35.91a6.24,6.24,0,0,0,4,1.7c1.48,0,2.74-.83,2.74-2.33,0-3.43-7.67-2.69-7.67-7.56,0-2.46,2.13-4.41,5.11-4.41a6.47,6.47,0,0,1,4.48,1.59l-1,1.84a5.55,5.55,0,0,0-3.47-1.37c-1.68,0-2.87,1.05-2.87,2.31,0,3.27,7.67,2.4,7.67,7.53,0,2.45-1.89,4.46-5,4.46a7.41,7.41,0,0,1-5.25-2.08Z"/><path class="b344f51d-4177-46a4-acc6-c67c278ffb2c" d="M90.67,46.44h5.56v1.23H92.09V51h3.52v1.23H92.09v4.31H90.67Z"/><path class="b344f51d-4177-46a4-acc6-c67c278ffb2c" d="M106.28,53.62h-3.8l-1,2.9H100l3.62-10.08h1.49l3.62,10.08h-1.47Zm-1.9-5.79s-.23.91-.4,1.43l-1.12,3.19h3l-1.11-3.19c-.17-.52-.39-1.43-.39-1.43Z"/><path class="b344f51d-4177-46a4-acc6-c67c278ffb2c" d="M113.81,46.44h3.52c1.7,0,2.93,1,2.93,2.57A2.36,2.36,0,0,1,119,51.18v0a2.42,2.42,0,0,1,1.66,2.44c0,1.9-1.47,2.87-3.24,2.87h-3.61Zm3.52,4.24a1.42,1.42,0,0,0,1.49-1.52,1.39,1.39,0,0,0-1.51-1.49h-2.09v3Zm.16,4.61a1.6,1.6,0,0,0,1.73-1.71,1.64,1.64,0,0,0-1.74-1.73h-2.26v3.44Z"/><path class="b344f51d-4177-46a4-acc6-c67c278ffb2c" d="M126.42,46.44h3.08a5.08,5.08,0,0,1,1.88.23,3,3,0,0,1-.11,5.45v0a3.48,3.48,0,0,1,.3.46l2.14,3.91h-1.6l-2.12-4h-2.16v4h-1.41Zm3.44,4.84a1.67,1.67,0,0,0,1.78-1.82,1.64,1.64,0,0,0-.8-1.56,2.79,2.79,0,0,0-1.38-.23h-1.63v3.61Z"/><path class="b344f51d-4177-46a4-acc6-c67c278ffb2c" d="M139.13,46.44h1.41V56.52h-1.41Z"/><path class="b344f51d-4177-46a4-acc6-c67c278ffb2c" d="M151.28,46.27A5.18,5.18,0,0,1,155,47.6l-.7,1.06a4.59,4.59,0,0,0-2.91-1.1,3.66,3.66,0,0,0-3.73,3.85,3.78,3.78,0,0,0,3.74,4,4.55,4.55,0,0,0,3.11-1.31l.76,1a5.42,5.42,0,0,1-3.91,1.6,5.21,5.21,0,0,1,0-10.42Z"/><path class="b344f51d-4177-46a4-acc6-c67c278ffb2c" d="M165.7,53.62h-3.8l-1,2.9h-1.46l3.62-10.08h1.49l3.62,10.08h-1.47Zm-1.9-5.79s-.23.91-.4,1.43l-1.12,3.19h3.05l-1.11-3.19c-.18-.52-.39-1.43-.39-1.43Z"/><path class="b344f51d-4177-46a4-acc6-c67c278ffb2c" d="M173.23,46.44h1.4L179.11,53c.37.54.84,1.45.84,1.45h0s-.1-.9-.1-1.45V46.44h1.41V56.52h-1.38L175.41,50c-.37-.55-.84-1.47-.84-1.47h0s.1.9.1,1.47v6.54h-1.41Z"/><path class="b344f51d-4177-46a4-acc6-c67c278ffb2c" d="M187.59,46.44h3.34c3.08,0,5.11,1.85,5.11,5s-2,5.05-5.11,5.05h-3.34Zm3.24,8.85a3.47,3.47,0,0,0,3.75-3.82,3.47,3.47,0,0,0-3.75-3.8H189v7.62Z"/><path class="b344f51d-4177-46a4-acc6-c67c278ffb2c" d="M206.21,46.27a5.07,5.07,0,0,1,5.16,5.14,5.17,5.17,0,1,1-10.34,0A5.09,5.09,0,0,1,206.21,46.27Zm0,9.12a3.81,3.81,0,0,0,3.71-4,3.72,3.72,0,1,0-7.44,0A3.82,3.82,0,0,0,206.21,55.39Z"/><path class="b344f51d-4177-46a4-acc6-c67c278ffb2c" d="M225.35,46.44h5.55v1.23h-4.14V51h3.52v1.23h-3.52v4.31h-1.41Z"/><path class="b344f51d-4177-46a4-acc6-c67c278ffb2c" d="M236.34,46.44h1.42V56.52h-1.42Z"/><path class="b344f51d-4177-46a4-acc6-c67c278ffb2c" d="M246.22,47.67h-3.46V46.44h8.32v1.23h-3.45v8.85h-1.41Z"/><path class="b344f51d-4177-46a4-acc6-c67c278ffb2c" d="M265.23,46.44h5.55v1.23h-4.14V51h3.52v1.23h-3.52v4.31h-1.41Z"/><path class="b344f51d-4177-46a4-acc6-c67c278ffb2c" d="M280.83,53.62H277l-1,2.9h-1.46l3.63-10.08h1.48l3.62,10.08h-1.46Zm-1.9-5.79s-.22.91-.4,1.43l-1.12,3.19h3l-1.11-3.19c-.17-.52-.39-1.43-.39-1.43Z"/><path class="b344f51d-4177-46a4-acc6-c67c278ffb2c" d="M288.36,46.44h3.52c1.7,0,2.93,1,2.93,2.57a2.34,2.34,0,0,1-1.26,2.17v0a2.42,2.42,0,0,1,1.66,2.44c0,1.9-1.47,2.87-3.24,2.87h-3.61Zm3.52,4.24a1.42,1.42,0,0,0,1.49-1.52,1.39,1.39,0,0,0-1.51-1.49h-2.09v3Zm.16,4.61a1.6,1.6,0,0,0,1.73-1.71A1.64,1.64,0,0,0,292,51.85h-2.26v3.44Z"/><path class="b344f51d-4177-46a4-acc6-c67c278ffb2c" d="M301,46.44h5.85v1.23h-4.44v3.16H306v1.22h-3.61v3.24h4.68v1.23H301Z"/><path class="b344f51d-4177-46a4-acc6-c67c278ffb2c" d="M312.71,46.44h3.08a5.08,5.08,0,0,1,1.88.23,3,3,0,0,1-.11,5.45v0a3.48,3.48,0,0,1,.3.46L320,56.52h-1.6l-2.12-4h-2.16v4h-1.41Zm3.44,4.84a1.67,1.67,0,0,0,1.78-1.82,1.64,1.64,0,0,0-.8-1.56,2.79,2.79,0,0,0-1.38-.23h-1.63v3.61Z"/><polygon class="ab67bd07-9012-4bf6-a80a-5ce0f14154aa" points="79.42 47.9 65.55 50.7 73.37 62.49 59.49 59.78 62.2 73.66 50.41 65.84 47.61 79.71 39.71 67.97 31.81 79.71 29 65.84 17.21 73.66 19.93 59.78 6.04 62.49 13.87 50.7 0 47.9 11.74 40 0 32.1 13.87 29.3 6.04 17.51 19.93 20.22 17.21 6.34 29 14.16 31.81 0.29 39.71 12.03 47.61 0.29 50.41 14.16 62.2 6.34 59.49 20.22 73.37 17.51 65.55 29.3 79.42 32.1 67.68 40 79.42 47.9"/><circle class="b24e2516-3ae7-425d-86bf-cd6fd03428a6" cx="39.71" cy="39.69" r="24.55"/><circle class="a6b5a213-c3f2-4d32-b997-72dce41514c7" cx="39.71" cy="40" r="24.75"/><path class="baf4e9d7-99e7-4cd3-9a61-1248c2e87f53" d="M28.4,41.42h10v9.17H29.9A36.6,36.6,0,0,1,28.4,41.42Z"/><path class="baf4e9d7-99e7-4cd3-9a61-1248c2e87f53" d="M43,17.89a18,18,0,0,0-2.6-.46v9.73h7.83A25.63,25.63,0,0,0,43,17.89Z"/><path class="baf4e9d7-99e7-4cd3-9a61-1248c2e87f53" d="M28.4,38.36h10V29.19H29.91A36.24,36.24,0,0,0,28.4,38.36Z"/><path class="baf4e9d7-99e7-4cd3-9a61-1248c2e87f53" d="M35.47,61.6a20.26,20.26,0,0,0,2.92.36V52.63H30.62A35.8,35.8,0,0,0,35.47,61.6Z"/><path class="baf4e9d7-99e7-4cd3-9a61-1248c2e87f53" d="M30.63,27.16h7.76V17.43a20.64,20.64,0,0,0-2.92.57A36.9,36.9,0,0,0,30.63,27.16Z"/><path class="baf4e9d7-99e7-4cd3-9a61-1248c2e87f53" d="M32.23,19.11a20.08,20.08,0,0,0-10.65,8.05h6.73A32,32,0,0,1,32.23,19.11Z"/><path class="baf4e9d7-99e7-4cd3-9a61-1248c2e87f53" d="M27.64,29.19H20.2a22.76,22.76,0,0,0-2.76,9.17h8.78A38.43,38.43,0,0,1,27.64,29.19Z"/><path class="baf4e9d7-99e7-4cd3-9a61-1248c2e87f53" d="M26.22,41.42H17.44a22.69,22.69,0,0,0,2.75,9.17h7.45A38.35,38.35,0,0,1,26.22,41.42Z"/><path class="baf4e9d7-99e7-4cd3-9a61-1248c2e87f53" d="M21.56,52.63A20.22,20.22,0,0,0,32.23,60.7a32.53,32.53,0,0,1-3.93-8.07Z"/><path class="baf4e9d7-99e7-4cd3-9a61-1248c2e87f53" d="M46.49,18.87a34.22,34.22,0,0,1,4.08,8.29h7.27A21.24,21.24,0,0,0,46.49,18.87Z"/><path class="baf4e9d7-99e7-4cd3-9a61-1248c2e87f53" d="M52.66,38.36H62a22.58,22.58,0,0,0-2.75-9.17h-8A38.43,38.43,0,0,1,52.66,38.36Z"/><path class="baf4e9d7-99e7-4cd3-9a61-1248c2e87f53" d="M49,29.19H40.42v9.17H50.48A36.24,36.24,0,0,0,49,29.19Z"/><path class="baf4e9d7-99e7-4cd3-9a61-1248c2e87f53" d="M51.24,50.59h8A22.67,22.67,0,0,0,62,41.42H52.66A38.35,38.35,0,0,1,51.24,50.59Z"/><path class="baf4e9d7-99e7-4cd3-9a61-1248c2e87f53" d="M50.48,41.42H40.42v9.17H49A36.6,36.6,0,0,0,50.48,41.42Z"/><path class="baf4e9d7-99e7-4cd3-9a61-1248c2e87f53" d="M46.49,60.94a21.33,21.33,0,0,0,11.37-8.31H50.57A34,34,0,0,1,46.49,60.94Z"/><path class="baf4e9d7-99e7-4cd3-9a61-1248c2e87f53" d="M40.42,52.63V62A20,20,0,0,0,43,61.71a37.54,37.54,0,0,0,5.25-9.08Z"/></svg>